<?xml version="1.0" encoding="utf-8"?>
<!-- Generator: Adobe Illustrator 19.2.1, SVG Export Plug-In . SVG Version: 6.00 Build 0)  -->
<svg version="1.1" id="Ebene_1" xmlns="http://www.w3.org/2000/svg" xmlns:xlink="http://www.w3.org/1999/xlink" x="0px" y="0px"
	 viewBox="0 0 79 78.6" style="enable-background:new 0 0 79 78.6;" xml:space="preserve">
<style type="text/css">
	.st0{fill:#FFFFFF;}
</style>
<title>Nadler</title>
<path class="st0" d="M48.5,61c2.8,0,5.6-0.4,8.2-1.2c6.5-14.5,0-31.5-14.5-38c-7.3-3.3-15.6-3.4-23-0.3
	c-4.9,16.1,4.2,33.2,20.3,38.1C42.5,60.6,45.5,61,48.5,61z"/>
<path class="st0" d="M79,30.5C79,13.7,65.4,0,48.5,0C35.9,0,24.6,7.7,20.1,19.4c15.8-5.8,33.3,2.3,39.1,18.1
	c2.6,7,2.5,14.7-0.2,21.6C71,54.8,79,43.3,79,30.5z"/>
<path class="st0" d="M30.5,76.8C14.6,76.8,1.8,64,1.8,48.1c0-11.5,6.9-22,17.5-26.5c0.2-0.7,0.5-1.5,0.8-2.2
	C4.2,25.2-3.9,42.7,1.9,58.5s23.3,24,39.1,18.2c8.2-3,14.8-9.4,18-17.6c-0.7,0.3-1.5,0.5-2.2,0.7C52.1,70.2,41.8,76.8,30.5,76.8z"/>
</svg>
