<?xml version="1.0" encoding="utf-8"?>
<!-- Generator: Adobe Illustrator 19.2.1, SVG Export Plug-In . SVG Version: 6.00 Build 0)  -->
<svg version="1.1" id="Ebene_1" xmlns="http://www.w3.org/2000/svg" xmlns:xlink="http://www.w3.org/1999/xlink" x="0px" y="0px"
	 viewBox="0 0 87 87" style="enable-background:new 0 0 87 87;" xml:space="preserve">
<style type="text/css">
	.st0{fill:#FFFFFF;}
</style>
<title>Nadler</title>
<path class="st0" d="M43.5,86.5c-23.7,0-43-19.3-43-43s19.3-43,43-43s43,19.3,43,43C86.5,67.3,67.3,86.5,43.5,86.5z M43.5,1.5
	c-23.2,0-42,18.8-42,42s18.8,42,42,42s42-18.8,42-42C85.5,20.3,66.7,1.5,43.5,1.5L43.5,1.5z"/>
<path class="st0" d="M43.5,55.7c-6.7,0-12.2-5.5-12.2-12.2c0-6.7,5.5-12.2,12.2-12.2s12.2,5.5,12.2,12.2c0,3.2-1.3,6.3-3.6,8.6l0,0
	C49.9,54.4,46.8,55.7,43.5,55.7z M43.5,31.8c-6.5,0-11.7,5.3-11.7,11.7s5.3,11.7,11.7,11.7c6.5,0,11.7-5.3,11.7-11.7
	c0-3.1-1.2-6.1-3.4-8.3C49.6,33.1,46.6,31.8,43.5,31.8L43.5,31.8z"/>
<rect x="43.3" y="62.5" class="st0" width="0.5" height="13.7"/>
<rect x="43.3" y="10.9" class="st0" width="0.5" height="13.6"/>
<rect x="10.9" y="43.3" class="st0" width="13.6" height="0.5"/>
<rect x="62.5" y="43.3" class="st0" width="13.6" height="0.5"/>
<rect x="18.5" y="61.5" transform="matrix(0.7071 -0.7071 0.7071 0.7071 -36.2554 35.9739)" class="st0" width="13.6" height="0.5"/>
<rect x="54.9" y="25" transform="matrix(0.7071 -0.7071 0.7071 0.7071 0.1961 51.0654)" class="st0" width="13.6" height="0.5"/>
<rect x="25" y="18.5" transform="matrix(0.7071 -0.7071 0.7071 0.7071 -10.4768 25.2868)" class="st0" width="0.5" height="13.6"/>
<rect x="61.5" y="54.9" transform="matrix(0.7071 -0.7071 0.7071 0.7071 -25.5684 61.7384)" class="st0" width="0.5" height="13.6"/>
<rect x="51.4" y="57.4" transform="matrix(0.9239 -0.3827 0.3827 0.9239 -20.1908 24.545)" class="st0" width="0.5" height="11.2"/>
<rect x="35.2" y="18.4" transform="matrix(0.9239 -0.3827 0.3827 0.9239 -6.4905 15.3902)" class="st0" width="0.5" height="11.2"/>
<rect x="18.4" y="51.3" transform="matrix(0.9238 -0.3828 0.3828 0.9238 -17.9238 13.1252)" class="st0" width="11.2" height="0.5"/>
<rect x="57.4" y="35.2" transform="matrix(0.9238 -0.3828 0.3828 0.9238 -8.7659 26.8292)" class="st0" width="11.2" height="0.5"/>
<rect x="29.9" y="62.8" transform="matrix(0.3828 -0.9238 0.9238 0.3828 -36.353 71.6452)" class="st0" width="11.2" height="0.5"/>
<rect x="46" y="23.8" transform="matrix(0.3828 -0.9238 0.9238 0.3828 9.6586 62.4846)" class="st0" width="11.2" height="0.5"/>
<rect x="23.8" y="29.8" transform="matrix(0.3827 -0.9239 0.9239 0.3827 -17.9201 44.0605)" class="st0" width="0.5" height="11.2"/>
<rect x="62.8" y="46" transform="matrix(0.3827 -0.9239 0.9239 0.3827 -8.7558 90.0847)" class="st0" width="0.5" height="11.2"/>
</svg>
