<?xml version="1.0" encoding="utf-8"?>
<!-- Generator: Adobe Illustrator 19.2.1, SVG Export Plug-In . SVG Version: 6.00 Build 0)  -->
<svg version="1.1" id="Ebene_1" xmlns="http://www.w3.org/2000/svg" xmlns:xlink="http://www.w3.org/1999/xlink" x="0px" y="0px"
	 viewBox="0 0 87 87" style="enable-background:new 0 0 87 87;" xml:space="preserve">
<style type="text/css">
	.st0{fill:#FFFFFF;}
</style>
<title>Nadler</title>
<polygon class="st0" points="30.3,73.8 29.8,73.7 32.3,58.7 18.8,65.7 18.5,65.2 33,57.8 "/>
<polygon class="st0" points="54.1,28.7 56.7,12.7 57.2,12.8 54.7,27.8 68.3,20.8 68.5,21.2 "/>
<rect x="13.6" y="42.8" transform="matrix(0.5881 -0.8088 0.8088 0.5881 -16.7864 53.0522)" class="st0" width="60.2" height="0.5"/>
<polygon class="st0" points="14.9,60.2 14.5,59.8 25.4,49.1 10.3,46.9 10.4,46.4 26.4,48.8 "/>
<polygon class="st0" points="76.7,40.1 60.6,37.7 72.2,26.3 72.5,26.6 61.7,37.3 76.7,39.6 "/>
<rect x="13.7" y="42.9" transform="matrix(0.9512 -0.3085 0.3085 0.9512 -11.1782 15.6141)" class="st0" width="60.2" height="0.5"/>
<polygon class="st0" points="10.4,40.1 10.3,39.6 25.4,37.3 14.5,26.6 14.9,26.3 26.4,37.7 "/>
<polygon class="st0" points="72.2,60.2 60.6,48.8 76.7,46.4 76.7,46.9 61.7,49.1 72.5,59.8 "/>
<rect x="43.6" y="13.2" transform="matrix(0.309 -0.9511 0.9511 0.309 -10.9367 71.5928)" class="st0" width="0.5" height="60.2"/>
<polygon class="st0" points="33,28.7 18.5,21.2 18.8,20.8 32.3,27.8 29.8,12.8 30.3,12.7 "/>
<polygon class="st0" points="56.7,73.8 54.1,57.8 68.5,65.2 68.3,65.7 54.7,58.7 57.2,73.7 "/>
<rect x="43.4" y="13.4" transform="matrix(0.809 -0.5878 0.5878 0.809 -17.2024 33.9835)" class="st0" width="0.5" height="60.2"/>
<polygon class="st0" points="43.5,25.3 36.3,10.7 36.7,10.5 43.5,24.1 50.3,10.5 50.8,10.7 "/>
<polygon class="st0" points="50.3,75.9 43.5,62.3 36.7,75.9 36.3,75.7 43.5,61.2 50.8,75.7 "/>
<rect x="43.3" y="13.4" class="st0" width="0.5" height="60.2"/>
<path class="st0" d="M43.5,86.5c-23.7,0-43-19.3-43-43s19.3-43,43-43s43,19.3,43,43C86.5,67.3,67.3,86.5,43.5,86.5z M43.5,1.5
	c-23.2,0-42,18.8-42,42s18.8,42,42,42s42-18.8,42-42C85.5,20.3,66.7,1.5,43.5,1.5L43.5,1.5z"/>
</svg>
