<?xml version="1.0" encoding="utf-8"?>
<!-- Generator: Adobe Illustrator 19.2.1, SVG Export Plug-In . SVG Version: 6.00 Build 0)  -->
<svg version="1.1" id="Ebene_1" xmlns="http://www.w3.org/2000/svg" xmlns:xlink="http://www.w3.org/1999/xlink" x="0px" y="0px"
	 viewBox="0 0 87 87" style="enable-background:new 0 0 87 87;" xml:space="preserve">
<style type="text/css">
	.st0{fill:#FFFFFF;}
</style>
<title>Nadler</title>
<path class="st0" d="M43.5,86.5c-23.7,0-43-19.3-43-43s19.3-43,43-43s43,19.3,43,43C86.5,67.3,67.3,86.5,43.5,86.5z M43.5,1.5
	c-23.2,0-42,18.8-42,42s18.8,42,42,42s42-18.8,42-42C85.5,20.3,66.7,1.5,43.5,1.5L43.5,1.5z"/>
<path class="st0" d="M44.8,44.8c-9.6,0-18.5-4.9-23.6-13C14.9,33.1,8.5,30.4,5.1,25l0.4-0.3c2.7,4.3,7.4,7,12.6,6.9
	c1.1,0,2.1-0.1,3.2-0.3h0.2l0.1,0.1c8.1,12.9,25,16.7,37.9,8.7c0.7-0.4,1.3-0.9,1.9-1.3l0.1-0.1l0.1,0.1c7.8,4.2,17.4,2.5,23.5-4
	l0.4,0.3c-6.1,6.6-15.9,8.3-23.9,4.1C56.6,42.9,50.8,44.8,44.8,44.8z"/>
<rect x="3.6" y="52.2" transform="matrix(0.3731 -0.9278 0.9278 0.3731 -38.6528 47.7626)" class="st0" width="24.7" height="0.5"/>
<rect x="13.9" y="55.4" transform="matrix(0.3731 -0.9278 0.9278 0.3731 -36.9023 56.7282)" class="st0" width="19.2" height="0.5"/>
<rect x="17.9" y="60.6" transform="matrix(0.3731 -0.9278 0.9278 0.3731 -37.89 65.6605)" class="st0" width="23.4" height="0.5"/>
<rect x="24.8" y="62.9" transform="matrix(0.3731 -0.9278 0.9278 0.3731 -35.0607 74.3898)" class="st0" width="25.5" height="0.5"/>
<rect x="31.1" y="63.3" transform="matrix(0.3731 -0.9278 0.9278 0.3731 -30.2826 82.2871)" class="st0" width="29.3" height="0.5"/>
<rect x="37.4" y="61.6" transform="matrix(0.3731 -0.9278 0.9278 0.3731 -23.3271 89.233)" class="st0" width="34" height="0.5"/>
<rect x="46.2" y="61.3" transform="matrix(0.3731 -0.9278 0.9278 0.3731 -18.8345 95.227)" class="st0" width="29.6" height="0.5"/>
<rect x="54" y="60.4" transform="matrix(0.3731 -0.9278 0.9278 0.3731 -13.5539 101.2081)" class="st0" width="28.2" height="0.5"/>
</svg>
