<?xml version="1.0" encoding="utf-8"?>
<!-- Generator: Adobe Illustrator 19.2.1, SVG Export Plug-In . SVG Version: 6.00 Build 0)  -->
<svg version="1.1" id="Ebene_1" xmlns="http://www.w3.org/2000/svg" xmlns:xlink="http://www.w3.org/1999/xlink" x="0px" y="0px"
	 viewBox="0 0 70.9 89" style="enable-background:new 0 0 70.9 89;" xml:space="preserve">
<style type="text/css">
	.st0{fill:#FFFFFF;}
</style>
<title>Nadler</title>
<path class="st0" d="M56.3,65.6c0.1-0.2,0.2-0.4,0.2-0.6c0-0.2-0.1-0.5-0.2-0.7c-0.2-0.2-0.4-0.3-0.6-0.3c-0.1,0-0.5,0-1.2,0h-1.3v2
	h1.2c0.5,0,1,0,1.5-0.1C56,65.8,56.2,65.7,56.3,65.6z"/>
<path class="st0" d="M54.3,74.6c-0.2,0-0.4,0.1-0.5,0.2c-0.1,0.2-0.2,0.4-0.2,0.7c0,0.2,0,0.4,0.1,0.6c0.2,0.3,0.5,0.4,0.8,0.2
	c0.1,0,0.1-0.1,0.2-0.2c0.1-0.2,0.2-0.5,0.2-0.7c0-0.3,0-0.5-0.2-0.7C54.6,74.7,54.5,74.6,54.3,74.6z"/>
<path class="st0" d="M18.9,75.8c-0.2,0.1-0.3,0.3-0.2,0.5c0,0,0.1,0.1,0.1,0.1c0.1,0.1,0.2,0.1,0.4,0.1c0.2,0,0.3,0,0.4-0.1
	c0.1-0.1,0.2-0.2,0.3-0.3c0.1-0.1,0.1-0.3,0.1-0.4v-0.1c-0.2,0.1-0.4,0.1-0.7,0.2C19.1,75.7,19,75.7,18.9,75.8z"/>
<path class="st0" d="M24.9,74.6c-0.2,0-0.4,0.1-0.5,0.2c-0.1,0.1-0.2,0.3-0.2,0.5h1.4c0-0.2-0.1-0.3-0.2-0.5
	C25.3,74.7,25.1,74.6,24.9,74.6z"/>
<path class="st0" d="M33.2,64.4c-0.2-0.2-0.5-0.4-0.8-0.4c-0.5,0-0.9,0-1.4,0h-0.7v5.4h1.2c0.3,0,0.7,0,1-0.1
	c0.2-0.1,0.5-0.2,0.7-0.3c0.2-0.2,0.4-0.5,0.4-0.8c0.1-0.5,0.2-1,0.2-1.5c0-0.5,0-1-0.2-1.4C33.5,64.9,33.4,64.7,33.2,64.4z"/>
<path class="st0" d="M31.5,74.6c-0.2,0-0.4,0.1-0.5,0.2c-0.1,0.1-0.2,0.3-0.2,0.5h1.4c0-0.2-0.1-0.3-0.2-0.5
	C31.9,74.7,31.7,74.6,31.5,74.6z"/>
<polygon class="st0" points="22.5,67.5 24.7,67.5 23.6,64.5 "/>
<path class="st0" d="M63.6,14.6c0-0.1,0.1-0.2,0.1-0.2c0-0.1,0-0.2-0.1-0.3C63.5,14,63.4,14,63.3,14h-1v0.8h0.5c0.2,0,0.4,0,0.6,0
	C63.5,14.8,63.6,14.7,63.6,14.6z"/>
<path class="st0" d="M0,0v89h70.9V0H0z M36.8,12.2h7.5c-0.1,3.7,0.1,8.9-0.2,11.1l6.5-11.1h7.7v21.6h-7.5c0.1-3.8-0.1-10.2,0.3-11.2
	l-6.7,11.2c-0.6-4-3.7-7.1-7.6-7.8V12.2z M49.6,65.8v1.4h-4.1v2.2h4.6v1.4h-6.2v-8.2h6.1V64h-4.4v1.8L49.6,65.8L49.6,65.8z
	 M44.1,47.3c0.3,2.2,0.1,7.4,0.2,11.1h-7.5v-14c3.9-0.7,6.9-3.7,7.6-7.7l0,0L51.1,48c-0.3-1.1-0.2-7.5-0.3-11.2h7.5v21.6h-7.7
	L44.1,47.3z M42.7,69.4v1.4h-5.7v-8.1h1.7v6.7H42.7L42.7,69.4z M42.2,35.3c0,3.9-3.1,7-7,7s-7-3.1-7-7s3.1-7,7-7
	C39.1,28.3,42.2,31.4,42.2,35.3C42.2,35.3,42.2,35.3,42.2,35.3L42.2,35.3z M12.2,12.3h7.6l6.7,11.2c-0.4-1.1-0.2-7.5-0.3-11.2h7.5
	v13.8c-4,0.6-7.1,3.7-7.8,7.7l-6.5-11c0.3,2.2,0.1,7.4,0.2,11.1h-7.5L12.2,12.3L12.2,12.3z M12.2,36.8h7.5
	c-0.1,3.8,0.1,10.2-0.3,11.2l6.6-11c0.7,3.9,3.8,6.9,7.7,7.5v14h-7.5c0.1-3.7-0.1-8.9,0.2-11.1l-6.5,11h-7.7L12.2,36.8L12.2,36.8z
	 M27.8,70.8H26l-0.7-1.9H22l-0.7,1.9h-1.8l3.2-8.2h1.8L27.8,70.8z M12.2,62.6h1.6l3.4,5.4v-5.4h1.5v8.2H17l-3.3-5.3v5.3h-1.5
	L12.2,62.6L12.2,62.6z M14.9,76.3c-0.1,0.2-0.3,0.3-0.4,0.4c-0.2,0.1-0.4,0.1-0.7,0.1c-0.3,0-0.5,0-0.8-0.1
	c-0.2-0.1-0.4-0.2-0.5-0.4c-0.1-0.2-0.2-0.4-0.2-0.6h0.4c0,0.1,0.1,0.2,0.2,0.3c0.1,0.1,0.2,0.2,0.3,0.3c0.2,0.1,0.3,0.1,0.5,0.1
	c0.2,0,0.3,0,0.5-0.1c0.1,0,0.2-0.1,0.3-0.2c0.1-0.1,0.1-0.2,0.1-0.3c0-0.1,0-0.2-0.1-0.3c-0.1-0.1-0.2-0.2-0.3-0.2
	c-0.2-0.1-0.4-0.1-0.6-0.2c-0.2,0-0.5-0.1-0.7-0.1c-0.1-0.1-0.3-0.2-0.4-0.3c-0.1-0.1-0.1-0.3-0.1-0.4c0-0.2,0.1-0.3,0.1-0.5
	c0.1-0.2,0.3-0.3,0.4-0.3c0.2-0.1,0.4-0.1,0.6-0.1c0.2,0,0.5,0,0.7,0.1c0.2,0.1,0.3,0.2,0.4,0.4c0.1,0.2,0.2,0.3,0.2,0.5h-0.4
	c0-0.2-0.1-0.4-0.2-0.5c-0.2-0.1-0.4-0.2-0.6-0.2c-0.2,0-0.4,0-0.6,0.2c-0.1,0.1-0.2,0.2-0.2,0.4c0,0.1,0,0.2,0.1,0.3
	c0.2,0.1,0.4,0.2,0.7,0.2c0.3,0.1,0.5,0.1,0.8,0.2c0.2,0.1,0.3,0.2,0.4,0.3c0.1,0.1,0.1,0.3,0.1,0.5C15.1,76,15,76.2,14.9,76.3
	L14.9,76.3z M16.1,76.8c-0.1,0-0.2,0-0.4-0.1c-0.1,0-0.1-0.1-0.2-0.2c0-0.2-0.1-0.4,0-0.6v-1.4h-0.3v-0.3h0.3v-0.6l0.4-0.2v0.9h0.4
	v0.3h-0.4V76c0,0.1,0,0.2,0,0.2c0,0,0,0.1,0.1,0.1c0,0,0.1,0,0.1,0h0.2l0.1,0.4C16.3,76.8,16.2,76.8,16.1,76.8L16.1,76.8z
	 M17.9,74.8c-0.1-0.1-0.2-0.1-0.3-0.1c-0.1,0-0.2,0-0.2,0.1c-0.1,0.1-0.1,0.1-0.2,0.2c0,0.2-0.1,0.3-0.1,0.5v1.3h-0.4v-2.5h0.4v0.4
	c0.1-0.1,0.2-0.3,0.3-0.3c0.1-0.1,0.2-0.1,0.3-0.1c0.2,0,0.3,0,0.4,0.1L17.9,74.8z M20,76.8c0-0.1-0.1-0.2-0.1-0.3
	c-0.1,0.1-0.3,0.2-0.5,0.3c-0.1,0.1-0.3,0.1-0.5,0.1c-0.2,0-0.4-0.1-0.6-0.2c-0.1-0.1-0.2-0.3-0.2-0.5c0-0.1,0-0.2,0.1-0.3
	c0.1-0.1,0.1-0.2,0.2-0.2c0.1-0.1,0.2-0.1,0.3-0.1l0.4-0.1c0.3,0,0.5-0.1,0.8-0.1c0-0.1,0-0.1,0-0.1c0-0.1,0-0.3-0.1-0.4
	c-0.1-0.1-0.3-0.2-0.5-0.1c-0.2,0-0.3,0-0.4,0.1c-0.1,0.1-0.2,0.2-0.2,0.4L18.3,75c0-0.2,0.1-0.3,0.2-0.4c0.1-0.1,0.2-0.2,0.4-0.2
	c0.2-0.1,0.4-0.1,0.6-0.1c0.2,0,0.3,0,0.5,0.1c0.1,0,0.2,0.1,0.3,0.2c0.1,0.1,0.1,0.2,0.1,0.3c0,0.1,0,0.3,0,0.4v0.6
	c0,0.2,0,0.5,0,0.7c0,0.1,0.1,0.2,0.1,0.3L20,76.8L20,76.8z M23.2,76.6c-0.2,0.2-0.4,0.2-0.6,0.2c-0.2,0-0.4-0.1-0.5-0.2
	c-0.1-0.1-0.3-0.2-0.3-0.4l0.4-0.2c0.1,0.1,0.1,0.2,0.2,0.3c0.1,0.1,0.2,0.1,0.2,0.1c0.1,0,0.2,0,0.3-0.1c0.1-0.1,0.2-0.2,0.1-0.3
	c0-0.1,0-0.2-0.1-0.2c-0.1-0.1-0.2-0.1-0.3-0.2c-0.2-0.1-0.3-0.2-0.5-0.4c-0.1-0.1-0.1-0.2-0.1-0.2c0-0.1,0-0.1,0-0.2
	c0-0.1,0.1-0.2,0.1-0.3c0.1-0.1,0.1-0.2,0.2-0.3c0-0.1,0-0.1,0-0.2c0-0.1-0.1-0.2-0.1-0.2c-0.1-0.1-0.2-0.1-0.3-0.1
	c-0.2,0-0.3,0-0.4,0.2c-0.1,0.2-0.2,0.4-0.2,0.7v2.3H21v-2.3c0-0.2,0-0.4,0.1-0.7c0.1-0.2,0.2-0.3,0.3-0.4c0.2-0.1,0.4-0.1,0.6-0.1
	c0.2,0,0.5,0.1,0.6,0.2c0.1,0.1,0.2,0.3,0.2,0.5c0,0.1,0,0.2,0,0.2c0,0.1-0.1,0.2-0.1,0.3c0,0.1-0.1,0.2-0.1,0.3c0,0,0,0.1,0,0.1
	c0,0.1,0,0.1,0,0.2c0.1,0.1,0.2,0.2,0.3,0.2c0.2,0.1,0.3,0.2,0.4,0.3c0.1,0.1,0.2,0.3,0.1,0.4C23.5,76.2,23.4,76.4,23.2,76.6
	L23.2,76.6z M26,75.6h-1.8c0,0.2,0.1,0.4,0.2,0.6c0.1,0.1,0.3,0.2,0.5,0.2c0.1,0,0.3,0,0.4-0.1c0.1-0.1,0.2-0.2,0.3-0.4H26
	c-0.1,0.2-0.2,0.4-0.4,0.6c-0.2,0.1-0.5,0.2-0.7,0.2c-0.3,0-0.6-0.1-0.9-0.3c-0.2-0.3-0.3-0.6-0.3-0.9c0-0.4,0.1-0.7,0.3-1
	c0.2-0.2,0.5-0.4,0.8-0.3c0.3,0,0.6,0.1,0.8,0.3c0.2,0.3,0.3,0.6,0.3,0.9C26,75.5,26,75.6,26,75.6L26,75.6z M28.5,76.8h-0.4v-1.5
	c0-0.1,0-0.3,0-0.4c0-0.1-0.1-0.2-0.2-0.2c-0.1-0.1-0.2-0.1-0.3-0.1c-0.2,0-0.3,0.1-0.5,0.2C27.1,75,27,75.2,27,75.4v1.3h-0.5v-2.5
	h0.4v0.3c0.2-0.3,0.5-0.4,0.8-0.4c0.1,0,0.3,0,0.4,0.1c0.1,0,0.2,0.1,0.3,0.2c0.1,0.1,0.1,0.2,0.1,0.3c0,0.1,0,0.3,0,0.4L28.5,76.8
	L28.5,76.8z M29.8,76.8c-0.1,0-0.2,0-0.4-0.1c-0.1,0-0.1-0.1-0.2-0.2c0-0.2-0.1-0.3,0-0.5v-1.4H29v-0.3h0.3v-0.6l0.4-0.2v0.9h0.4
	v0.3h-0.5V76c0,0.1,0,0.2,0,0.2c0,0,0,0.1,0.1,0.1c0,0,0.1,0,0.1,0h0.2l0.1,0.4C30,76.8,29.9,76.8,29.8,76.8L29.8,76.8z M32.6,75.6
	h-1.8c0,0.2,0.1,0.4,0.2,0.6c0.1,0.1,0.3,0.2,0.5,0.2c0.1,0,0.3,0,0.4-0.1c0.1-0.1,0.2-0.2,0.2-0.3h0.4c-0.1,0.2-0.2,0.4-0.4,0.6
	c-0.2,0.1-0.5,0.2-0.7,0.2c-0.3,0-0.6-0.1-0.9-0.3c-0.2-0.3-0.3-0.6-0.3-0.9c0-0.4,0.1-0.7,0.3-1c0.2-0.2,0.5-0.4,0.8-0.3
	c0.3,0,0.6,0.1,0.8,0.3c0.2,0.3,0.3,0.6,0.3,0.9C32.6,75.5,32.6,75.6,32.6,75.6L32.6,75.6z M34.8,76.6c-0.2,0.2-0.4,0.2-0.7,0.2
	c-0.3,0-0.6-0.1-0.8-0.3c-0.2-0.3-0.3-0.6-0.3-0.9c0-0.2,0-0.5,0.1-0.7c0.1-0.2,0.2-0.3,0.4-0.4c0.2-0.1,0.4-0.2,0.6-0.2
	c0.2,0,0.5,0.1,0.7,0.2c0.2,0.1,0.3,0.4,0.3,0.6l-0.4,0.1c0-0.1-0.1-0.3-0.2-0.4c-0.1-0.1-0.2-0.1-0.4-0.1c-0.2,0-0.4,0.1-0.5,0.2
	c-0.2,0.2-0.2,0.5-0.2,0.7c0,0.3,0,0.5,0.2,0.7c0.1,0.2,0.3,0.2,0.5,0.2c0.2,0,0.3,0,0.4-0.2c0.1-0.1,0.2-0.3,0.2-0.5l0.4,0.1
	C35.1,76.2,35,76.4,34.8,76.6L34.8,76.6z M35.2,68.5c-0.2,0.5-0.5,1-0.9,1.4c-0.3,0.3-0.7,0.5-1.2,0.7c-0.5,0.1-1,0.2-1.5,0.2h-3.1
	v-8.2h3c0.5,0,1,0,1.6,0.2c0.5,0.1,0.9,0.4,1.2,0.8c0.4,0.4,0.6,0.8,0.8,1.3c0.2,0.6,0.3,1.3,0.3,1.9C35.5,67.3,35.4,67.9,35.2,68.5
	L35.2,68.5z M37.5,76.7h-0.4v-1.6c0-0.2,0-0.3-0.1-0.5c-0.1-0.1-0.2-0.1-0.4-0.1c-0.1,0-0.2,0-0.3,0.1C36.1,74.8,36,74.9,36,75
	c-0.1,0.1-0.1,0.3-0.1,0.4v1.3h-0.4v-3.4h0.4v1.2c0.2-0.2,0.5-0.3,0.7-0.3c0.2,0,0.3,0,0.5,0.1c0.1,0.1,0.2,0.2,0.3,0.3
	c0.1,0.2,0.1,0.4,0.1,0.6L37.5,76.7L37.5,76.7z M40.2,76.7h-0.4v-1.5c0-0.1,0-0.3,0-0.4c0-0.1-0.1-0.2-0.2-0.2
	c-0.1-0.1-0.2-0.1-0.3-0.1c-0.2,0-0.3,0.1-0.5,0.2c-0.1,0.2-0.2,0.4-0.2,0.6v1.3h-0.5v-2.5h0.4v0.3c0.2-0.3,0.5-0.4,0.8-0.4
	c0.1,0,0.3,0,0.4,0.1c0.1,0,0.2,0.1,0.3,0.2c0.1,0.1,0.1,0.2,0.1,0.3c0,0.1,0,0.3,0,0.4L40.2,76.7L40.2,76.7z M41.2,76.7h-0.4v-2.5
	h0.4L41.2,76.7L41.2,76.7z M41.2,73.8h-0.4v-0.5h0.4L41.2,73.8L41.2,73.8z M43.4,76.7l-0.8-1.2l-0.3,0.3v1h-0.4v-3.4h0.4v1.9l1-1
	h0.5l-0.9,0.9l1,1.6L43.4,76.7L43.4,76.7z M48.7,76.3c-0.2,0.2-0.4,0.3-0.7,0.4c-0.2,0.1-0.5,0.1-0.7,0.1c-0.3,0-0.6-0.1-0.9-0.2
	c-0.3-0.1-0.5-0.3-0.6-0.6c-0.1-0.3-0.2-0.6-0.2-0.9c0-0.3,0.1-0.6,0.2-0.9c0.1-0.3,0.3-0.5,0.6-0.6c0.3-0.1,0.6-0.2,0.9-0.2
	c0.2,0,0.5,0,0.7,0.1c0.2,0.1,0.3,0.2,0.5,0.3c0.1,0.2,0.2,0.4,0.3,0.6l-0.4,0.1c0-0.2-0.1-0.3-0.2-0.4c-0.1-0.1-0.2-0.2-0.3-0.2
	c-0.1-0.1-0.3-0.1-0.5-0.1c-0.2,0-0.4,0-0.5,0.1c-0.1,0.1-0.3,0.1-0.4,0.2c-0.1,0.1-0.2,0.2-0.2,0.3C46,74.6,46,74.8,46,75
	c0,0.3,0,0.5,0.2,0.8c0.1,0.2,0.3,0.4,0.5,0.4c0.2,0.1,0.4,0.2,0.6,0.2c0.2,0,0.4,0,0.6-0.1c0.2-0.1,0.3-0.1,0.4-0.2v-0.6h-1V75h1.4
	L48.7,76.3L48.7,76.3z M52.7,76.7h-0.5v-1.5c0-0.1,0-0.2,0-0.4c0-0.1-0.1-0.1-0.2-0.2c-0.1,0-0.2-0.1-0.2-0.1
	c-0.2,0-0.3,0.1-0.4,0.2c-0.1,0.2-0.2,0.4-0.2,0.6v1.4h-0.4v-1.6c0-0.1,0-0.3-0.1-0.4c-0.1-0.1-0.2-0.1-0.3-0.1
	c-0.1,0-0.2,0-0.3,0.1c-0.1,0.1-0.2,0.2-0.2,0.3c-0.1,0.2-0.1,0.3-0.1,0.5v1.3h-0.4v-2.4h0.4v0.3c0.1-0.1,0.2-0.2,0.4-0.3
	c0.1-0.1,0.3-0.1,0.4-0.1c0.2,0,0.3,0,0.5,0.1c0.1,0.1,0.2,0.2,0.2,0.3c0.2-0.3,0.4-0.4,0.8-0.4c0.2,0,0.4,0.1,0.6,0.2
	c0.1,0.2,0.2,0.4,0.2,0.6L52.7,76.7L52.7,76.7z M55.1,76.4c-0.2,0.2-0.5,0.3-0.8,0.3c-0.3,0-0.5-0.1-0.7-0.4v0.3h-0.4v-3.4h0.4v1.2
	c0.2-0.2,0.4-0.3,0.7-0.3c0.1,0,0.3,0,0.4,0.1c0.1,0.1,0.2,0.1,0.3,0.3c0.1,0.1,0.2,0.3,0.2,0.4c0,0.2,0.1,0.3,0.1,0.5
	C55.4,75.8,55.3,76.2,55.1,76.4L55.1,76.4z M58.7,76.7h-0.5v-1.6h-1.8v1.6h-0.5v-3.4h0.5v1.4h1.8v-1.4h0.5L58.7,76.7L58.7,76.7z
	 M56.9,70.7L55.7,69c-0.3-0.4-0.6-0.8-0.9-1.2c-0.1-0.2-0.3-0.3-0.5-0.3c-0.3-0.1-0.6-0.1-0.8-0.1h-0.3v3.4h-1.7v-8.2H55
	c0.6,0,1.3,0,1.9,0.2c0.4,0.1,0.8,0.4,1,0.8c0.2,0.4,0.4,0.8,0.4,1.3c0,0.6-0.2,1.1-0.5,1.5c-0.4,0.4-1,0.7-1.6,0.8
	c0.3,0.2,0.6,0.4,0.9,0.7c0.4,0.4,0.7,0.9,0.9,1.3l1,1.6L56.9,70.7L56.9,70.7z M63,17.9c-1.6,0-2.9-1.3-2.9-2.9
	c0-1.6,1.3-2.9,2.9-2.9c1.6,0,2.9,1.3,2.9,2.8C65.9,16.6,64.6,17.9,63,17.9C63,17.9,63,17.9,63,17.9z"/>
<path class="st0" d="M63,12.3c-1.5,0-2.7,1.2-2.7,2.7c0,1.5,1.2,2.7,2.7,2.7s2.7-1.2,2.7-2.7c0,0,0,0,0,0
	C65.7,13.5,64.5,12.3,63,12.3z M63.8,16.6l-0.5-0.7c-0.1-0.2-0.2-0.3-0.4-0.5c-0.1-0.1-0.1-0.1-0.2-0.1c-0.1,0-0.2,0-0.3,0h-0.1v1.3
	h-0.7v-3.3h1.4c0.3,0,0.5,0,0.8,0.1c0.2,0.1,0.3,0.2,0.4,0.3c0.1,0.2,0.1,0.3,0.1,0.5c0,0.2-0.1,0.4-0.2,0.6
	c-0.2,0.2-0.4,0.3-0.6,0.3c0.1,0.1,0.2,0.2,0.3,0.3c0.1,0.2,0.3,0.3,0.4,0.5l0.4,0.6L63.8,16.6L63.8,16.6z"/>
</svg>
